PathFileType	4	(X/Y/Z)	C:/Users/beibeiliu/ov580/test_trc/User3\sequence.16_training_dense_right.trc
DataRate	CameraRate	NumFrames	NumMarkers	Units	OrigDataRate	OrigDataStartFrame	OrigNumFrames
120	120	12	19	mm	120	100	266
Frame#	Time	ThumbCMC			ThumbMCP			ThumbIP			ThumbTip			IndexMCP			IndexPIP			IndexTip			MiddleMCP			MiddlePIP			MiddleTip			RingMCP			RingPIP			RingTip			PinkyMCP			PinkyPIP			PinkyTip			BackHand1			BackHand2			BackHand3	
		X0	Y0	Z0	X1	Y1	Z1	X2	Y2	Z2	X3	Y3	Z3	X4	Y4	Z4	X5	Y5	Z5	X6	Y6	Z6	X7	Y7	Z7	X8	Y8	Z8	X9	Y9	Z9	X10	Y10	Z10	X11	Y11	Z11	X12	Y12	Z12	X13	Y13	Z13	X14	Y14	Z14	X15	Y15	Z15	X16	Y16	Z16	X17	Y17	Z17	X18	Y18	Z18	
99	0.825	185.91	-13.1581	-3.51491	162.129	-9.10806	-24.5682	140.256	-12.5581	-48.8162	117.78	-23.1536	-58.9608	155.052	-54.7031	-60.193	129.028	-49.0755	-75.2594	104.809	-26.1223	-68.1178	141.338	-69.0643	-56.7267	112.95	-54.9975	-62.408	107.969	-24.6106	-38.0108	132.805	-78.7145	-38.3233	105.445	-65.1503	-41.0763	107.768	-40.2977	-20.5186	129.607	-88.6295	-16.2202	105.773	-76.1697	-26.6668	105.558	-48.1918	-14.9174	172.168	-77.1609	1.16909	186.678	-71.6359	29.6421	196.108	-49.7274	-3.61358	
100	0.833333	188.879	-16.4094	-2.95215	168.445	-10.4959	-29.4118	148.67	-13.2109	-51.5445	128.612	-29.7779	-61.8464	163.362	-61.8292	-60.1513	137.315	-54.9025	-80.4739	116.518	-36.2555	-76.8557	150.505	-74.8029	-56.5738	121.576	-61.1602	-67.6277	113.259	-31.7027	-47.2495	143.317	-84.2592	-40.0359	115.786	-70.8686	-51.6622	113.757	-42.0372	-30.3723	139.171	-89.404	-18.136	118.759	-83.1621	-36.4616	107.68	-55.9232	-24.4846	179.193	-76.6648	1.58728	187.911	-72.4711	29.8162	201.898	-53.7512	-2.11934	
101	0.841667	192.085	-16.9823	-7.46268	171.742	-17.5751	-31.5082	155.4	-20.0183	-59.4082	138.215	-29.5645	-69.8926	176.474	-63.8796	-65.8659	153.048	-60.3683	-84.7304	126.601	-40.7878	-82.9239	162.346	-79.4351	-60.7588	137.527	-67.6458	-75.0304	119.94	-35.8727	-54.6069	156.638	-86.5479	-46.0201	128.918	-77.778	-58.2899	119.009	-49.6074	-42.5625	150.063	-90.9643	-21.5067	129.358	-87.9803	-42.1288	113.646	-63.2293	-37.4726	185.333	-78.0891	5.26643	192.861	-68.359	30.4986	206.028	-54.3792	0.0446327	
102	0.85	193.535	-19.1953	-3.67143	176.768	-16.7088	-32.3135	162.018	-22.6038	-61.3219	146.938	-34.2185	-70.9752	188.968	-66.1577	-61.8846	166.72	-66.2384	-84.8737	140.336	-48.1757	-88.1938	176.904	-81.9173	-59.6	148.434	-72.6282	-78.2611	126.214	-44.1471	-59.1222	167.879	-90.6939	-44.1446	143.332	-84.2411	-63.2821	126.49	-57.7425	-50.7972	160.191	-96.3113	-26.9484	141.537	-94.4386	-46.0623	122.454	-72.8534	-44.6777	193.249	-80.6651	1.14555	196.932	-70.0512	33.7512	211.005	-53.5095	3.60231	
103	0.858333	195.334	-15.0274	-1.96672	179.202	-18.58	-30.7935	168.174	-25.651	-58.0741	155.506	-39.8897	-77.8637	198.113	-67.1928	-61.7791	178.7	-64.1063	-88.0196	153.192	-47.871	-93.0969	188.437	-82.8238	-58.561	163.991	-72.9235	-81.3713	139.319	-48.2189	-67.9475	181.209	-91.4234	-48.4007	157.616	-88.7974	-65.4788	136.113	-65.3503	-55.059	171.031	-100.284	-28.9594	156.663	-98.2674	-50.1295	134.145	-78.3158	-51.9502	199.786	-81.311	4.62802	201.618	-68.6655	33.7589	217.771	-47.1071	5.49852	
104	0.866667	191.378	-16.6952	2.60169	179.395	-15.7691	-32.3185	171.339	-26.1353	-58.5957	162.125	-38.3017	-75.556	211.872	-55.9562	-61.2215	191.867	-58.5601	-89.5488	163.143	-51.2093	-93.1755	204.22	-74.4003	-63.2219	177.64	-73.6286	-82.4674	147.498	-54.5837	-68.6086	194.608	-89.5355	-48.7752	171.142	-85.5412	-70.3667	146.047	-69.0304	-54.7076	185.935	-98.0365	-28.9356	169.939	-98.8527	-53.2548	145.272	-77.1456	-53.5819	208.94	-75.6118	7.83699	204.013	-66.8075	35.8887	216.522	-44.2151	10.1647	
105	0.875	188.205	-12.9805	3.02866	176.023	-12.9676	-30.146	170.815	-20.5106	-60.6895	166.676	-36.8139	-78.5316	216.982	-44.6964	-62.071	200.766	-47.885	-88.0657	172.545	-45.4274	-94.923	213.338	-64.6281	-62.3259	190.82	-66.7079	-83.5612	155.716	-53.5901	-67.6345	207.492	-78.7111	-53.7655	183.114	-78.9917	-72.5041	157.808	-68.2163	-58.9038	200.203	-92.0297	-33.3848	183.316	-91.0833	-58.3559	157.916	-79.8142	-54.1313	216.46	-68.6665	3.66359	210.664	-60.8911	33.4265	218.02	-33.497	8.16803	
106	0.883333	180.7	-6.30436	4.71301	171.078	-7.45796	-27.7366	169.582	-15.1152	-59.1659	167.432	-29.9187	-75.6805	218.158	-32.2745	-60.1315	206.007	-37.3141	-86.2817	174.031	-40.2463	-95.0076	219.05	-52.4642	-63.5345	194.396	-56.8585	-85.0506	159.427	-52.564	-62.9455	217.217	-65.606	-54.8748	194.874	-71.4092	-73.5822	167.252	-64.9122	-58.7334	212.026	-84.0215	-35.1603	194.007	-87.1201	-60.5691	168.484	-82.6741	-54.2967	224.591	-61.7141	3.44138	214.713	-58.5206	33.9913	217.227	-25.1734	9.23967	
107	0.891667	172.69	-6.2588	8.1498	167.726	-8.58365	-24.8708	167.309	-9.78174	-56.8112	168.3	-21.3568	-77.8367	217.092	-13.1304	-57.5295	203.239	-17.6629	-88.3084	172.579	-30.1126	-93.6839	221.864	-33.0054	-64.4769	198.513	-41.0681	-84.7824	168.206	-51.1695	-65.0599	221.737	-50.1956	-54.2198	199.338	-63.5907	-73.8545	173.482	-60.5029	-57.438	222.146	-70.6348	-40.7039	208.55	-74.8909	-62.8764	177.138	-72.7896	-56.4808	226.609	-49.3406	3.36182	217.768	-47.6022	30.488	211.413	-16.0678	13.8219	
108	0.9	168.056	-8.74518	12.001	161.597	-3.01574	-23.5677	158.865	-0.86715	-53.4194	167.139	-12.4672	-74.9792	212.092	0.897285	-51.6529	199.632	-5.02613	-85.1461	172.02	-19.1226	-91.7874	219.94	-15.4146	-55.7554	202.364	-29.8853	-83.0325	170.062	-42.0106	-63.6352	223.887	-35.5241	-55.2524	205.065	-50.2862	-74.0314	176.847	-56.9518	-54.6114	227.582	-54.1483	-43.0822	214.627	-58.7043	-63.2092	183.787	-67.3436	-57.0212	226.204	-38.7525	5.69579	216.882	-38.6783	32.3854	207.267	-8.41622	18.0186	
109	0.908333	161.915	-6.25933	14.6528	156.527	-1.99093	-16.4899	156.424	3.42312	-50.3094	164.485	-3.7393	-72.0849	203.66	14.2039	-45.6092	195.387	10.1791	-77.3556	169.482	-10.522	-89.9217	217.017	-4.37224	-57.2977	196.5	-12.6521	-80.1064	171.764	-37.3831	-64.2101	224.425	-23.5403	-51.7249	209.369	-35.2891	-73.3958	181.239	-48.5123	-57.9858	228.5	-37.6422	-39.615	215.374	-45.6559	-64.2053	188.901	-55.4869	-56.3237	224.216	-27.3267	7.29494	217.868	-35.7341	34.2355	199.761	-6.12209	21.7936	
110	0.916667	158.133	-5.31061	14.9608	150.612	-0.561491	-15.4294	146.805	8.06851	-43.5891	156.64	6.56242	-70.5747	198.352	20.0928	-41.2262	187.159	17.0764	-75.0316	164.488	-0.108627	-86.2861	208.318	10.934	-49.6597	190.848	-6.06996	-77.8669	168.69	-32.128	-61.8474	220.485	-9.0428	-46.5821	202.243	-19.9151	-73.2467	182.148	-37.3414	-60.6673	228.424	-25.1212	-38.6013	215.348	-28.8464	-62.437	191.231	-49.3527	-59.0468	222.161	-19.92	9.81073	213.322	-31.7994	36.2946	195.988	0.693681	23.9967	
